Unna-Regular Italic.ufo
<glyph name="dollar" format="1">
  <advance width="452"/>
  <unicode hex="0024"/>
  <outline>
    <contour>
      <point x="162" y="471"/>
      <point x="106" y="426"/>
      <point x="106" y="362" type="curve" smooth="yes"/>
      <point x="106" y="324"/>
      <point x="129" y="294"/>
      <point x="164" y="283" type="curve" smooth="yes"/>
      <point x="238" y="261" type="line" smooth="yes"/>
      <point x="272" y="251"/>
      <point x="283" y="236"/>
      <point x="283" y="211" type="curve" smooth="yes"/>
      <point x="283" y="170"/>
      <point x="257" y="141"/>
      <point x="211" y="141" type="curve" smooth="yes"/>
      <point x="151" y="141"/>
      <point x="111" y="182"/>
      <point x="109" y="242" type="curve"/>
      <point x="88" y="241" type="line"/>
      <point x="73" y="134" type="line"/>
      <point x="80" y="138"/>
      <point x="88" y="140"/>
      <point x="98" y="140" type="curve" smooth="yes"/>
      <point x="123" y="140"/>
      <point x="153" y="119"/>
      <point x="208" y="119" type="curve" smooth="yes"/>
      <point x="291" y="119"/>
      <point x="348" y="166"/>
      <point x="348" y="242" type="curve" smooth="yes"/>
      <point x="348" y="278"/>
      <point x="331" y="305"/>
      <point x="287" y="318" type="curve" smooth="yes"/>
      <point x="212" y="340" type="line" smooth="yes"/>
      <point x="183" y="348"/>
      <point x="169" y="365"/>
      <point x="169" y="387" type="curve" smooth="yes"/>
      <point x="169" y="429"/>
      <point x="195" y="449"/>
      <point x="241" y="449" type="curve" smooth="yes"/>
      <point x="299" y="449"/>
      <point x="329" y="409"/>
      <point x="323" y="369" type="curve"/>
      <point x="343" y="369" type="line"/>
      <point x="361" y="462" type="line"/>
      <point x="351" y="455"/>
      <point x="343" y="453"/>
      <point x="336" y="453" type="curve" smooth="yes"/>
      <point x="309" y="453"/>
      <point x="276" y="471"/>
      <point x="244" y="471" type="curve" smooth="yes"/>
    </contour>
    <contour>
      <point x="187" y="129" type="line"/>
      <point x="156" y="-95" type="line"/>
      <point x="194" y="-95" type="line"/>
      <point x="224" y="129" type="line"/>
    </contour>
    <contour>
      <point x="260" y="647" type="line"/>
      <point x="235" y="462" type="line"/>
      <point x="272" y="458" type="line"/>
      <point x="298" y="647" type="line"/>
    </contour>
  </outline>
</glyph>
<glyph name="percent" format="1">
  <advance width="597"/>
  <unicode hex="0025"/>
  <outline>
    <contour>
      <point x="378" y="275"/>
      <point x="315" y="217"/>
      <point x="315" y="106" type="curve" smooth="yes"/>
      <point x="315" y="32"/>
      <point x="353" y="-9"/>
      <point x="418" y="-9" type="curve" smooth="yes"/>
      <point x="499" y="-9"/>
      <point x="560" y="50"/>
      <point x="560" y="159" type="curve" smooth="yes"/>
      <point x="560" y="234"/>
      <point x="520" y="275"/>
      <point x="458" y="275" type="curve" smooth="yes"/>
    </contour>
    <contour>
      <point x="481" y="257"/>
      <point x="497" y="238"/>
      <point x="497" y="179" type="curve" smooth="yes"/>
      <point x="497" y="63"/>
      <point x="469" y="10"/>
      <point x="420" y="10" type="curve" smooth="yes"/>
      <point x="396" y="10"/>
      <point x="378" y="28"/>
      <point x="378" y="88" type="curve" smooth="yes"/>
      <point x="378" y="201"/>
      <point x="408" y="257"/>
      <point x="455" y="257" type="curve" smooth="yes"/>
    </contour>
    <contour>
      <point x="123" y="608"/>
      <point x="62" y="549"/>
      <point x="62" y="439" type="curve" smooth="yes"/>
      <point x="62" y="365"/>
      <point x="100" y="324"/>
      <point x="164" y="324" type="curve" smooth="yes"/>
      <point x="246" y="324"/>
      <point x="306" y="383"/>
      <point x="306" y="492" type="curve" smooth="yes"/>
      <point x="306" y="567"/>
      <point x="265" y="608"/>
      <point x="204" y="608" type="curve" smooth="yes"/>
    </contour>
    <contour>
      <point x="227" y="590"/>
      <point x="243" y="571"/>
      <point x="243" y="512" type="curve" smooth="yes"/>
      <point x="243" y="396"/>
      <point x="215" y="343"/>
      <point x="167" y="343" type="curve" smooth="yes"/>
      <point x="142" y="343"/>
      <point x="124" y="361"/>
      <point x="124" y="421" type="curve" smooth="yes"/>
      <point x="124" y="534"/>
      <point x="154" y="590"/>
      <point x="201" y="590" type="curve" smooth="yes"/>
    </contour>
    <component base="fraction" xOffset="214"/>
  </outline>
</glyph>
<glyph name="ampersand" format="1">
  <advance width="590"/>
  <unicode hex="0026"/>
  <outline>
    <contour>
      <point x="322" y="356" type="line"/>
      <point x="267" y="375"/>
      <point x="241" y="414"/>
      <point x="241" y="476" type="curve" smooth="yes"/>
      <point x="241" y="546"/>
      <point x="275" y="584"/>
      <point x="328" y="584" type="curve" smooth="yes"/>
      <point x="356" y="584"/>
      <point x="373" y="573"/>
      <point x="373" y="552" type="curve" smooth="yes"/>
      <point x="373" y="535"/>
      <point x="361" y="527"/>
      <point x="361" y="512" type="curve" smooth="yes"/>
      <point x="361" y="493"/>
      <point x="379" y="480"/>
      <point x="397" y="480" type="curve" smooth="yes"/>
      <point x="419" y="480"/>
      <point x="445" y="499"/>
      <point x="445" y="530" type="curve" smooth="yes"/>
      <point x="445" y="567"/>
      <point x="407" y="607"/>
      <point x="332" y="607" type="curve" smooth="yes"/>
      <point x="250" y="607"/>
      <point x="161" y="559"/>
      <point x="161" y="475" type="curve" smooth="yes"/>
      <point x="161" y="420"/>
      <point x="200" y="376"/>
      <point x="243" y="352" type="curve"/>
      <point x="90" y="349"/>
      <point x="17" y="259"/>
      <point x="17" y="168" type="curve" smooth="yes"/>
      <point x="17" y="60"/>
      <point x="119" y="-9"/>
      <point x="248" y="-9" type="curve" smooth="yes"/>
      <point x="378" y="-9"/>
      <point x="483" y="62"/>
      <point x="483" y="164" type="curve" smooth="yes"/>
      <point x="483" y="216"/>
      <point x="456" y="248"/>
      <point x="415" y="263" type="curve"/>
      <point x="405" y="243" type="line"/>
      <point x="487" y="252"/>
      <point x="574" y="292"/>
      <point x="574" y="354" type="curve" smooth="yes"/>
      <point x="574" y="380"/>
      <point x="559" y="397"/>
      <point x="531" y="397" type="curve" smooth="yes"/>
      <point x="508" y="397"/>
      <point x="493" y="385"/>
      <point x="493" y="360" type="curve" smooth="yes"/>
      <point x="493" y="349"/>
      <point x="496" y="338"/>
      <point x="496" y="328" type="curve" smooth="yes"/>
      <point x="496" y="284"/>
      <point x="435" y="276"/>
      <point x="389" y="270" type="curve" smooth="yes"/>
      <point x="381" y="269" type="line" smooth="yes"/>
      <point x="301" y="259"/>
      <point x="228" y="230"/>
      <point x="228" y="163" type="curve" smooth="yes"/>
      <point x="228" y="132"/>
      <point x="243" y="116"/>
      <point x="270" y="116" type="curve" smooth="yes"/>
      <point x="294" y="116"/>
      <point x="309" y="128"/>
      <point x="309" y="153" type="curve" smooth="yes"/>
      <point x="309" y="164"/>
      <point x="306" y="174"/>
      <point x="306" y="185" type="curve" smooth="yes"/>
      <point x="306" y="225"/>
      <point x="341" y="243"/>
      <point x="377" y="243" type="curve" smooth="yes"/>
      <point x="422" y="243"/>
      <point x="455" y="214"/>
      <point x="455" y="162" type="curve" smooth="yes"/>
      <point x="455" y="75"/>
      <point x="363" y="18"/>
      <point x="264" y="18" type="curve" smooth="yes"/>
      <point x="169" y="18"/>
      <point x="103" y="70"/>
      <point x="103" y="160" type="curve" smooth="yes"/>
      <point x="103" y="242"/>
      <point x="159" y="335"/>
      <point x="282" y="335" type="curve" smooth="yes"/>
      <point x="294" y="335"/>
      <point x="306" y="335"/>
      <point x="319" y="333" type="curve"/>
    </contour>
  </outline>
</glyph>
<glyph name="slash" format="1">
  <advance width="241"/>
  <unicode hex="002F"/>
  <outline>
    <contour>
      <point x="-34" y="7" type="line"/>
      <point x="4" y="-5" type="line"/>
      <point x="304" y="627" type="line"/>
      <point x="265" y="636" type="line"/>
    </contour>
  </outline>
</glyph>
<glyph name="one" format="1">
  <advance width="388"/>
  <unicode hex="0031"/>
  <outline>
    <contour>
      <point x="282" y="617" type="line"/>
      <point x="266" y="603"/>
      <point x="249" y="589"/>
      <point x="231" y="576" type="curve" smooth="yes"/>
      <point x="200" y="554"/>
      <point x="156" y="527"/>
      <point x="105" y="513" type="curve"/>
      <point x="108" y="479" type="line"/>
      <point x="187" y="512" type="line" smooth="yes"/>
      <point x="199" y="518"/>
      <point x="207" y="509"/>
      <point x="205" y="497" type="curve" smooth="yes"/>
      <point x="142" y="43" type="line" smooth="yes"/>
      <point x="140" y="30"/>
      <point x="132" y="23"/>
      <point x="118" y="23" type="curve" smooth="yes"/>
      <point x="52" y="24" type="line"/>
      <point x="49" y="0" type="line"/>
      <point x="297" y="0" type="line"/>
      <point x="300" y="24" type="line"/>
      <point x="235" y="23" type="line" smooth="yes"/>
      <point x="222" y="23"/>
      <point x="217" y="30"/>
      <point x="219" y="43" type="curve" smooth="yes"/>
      <point x="299" y="617" type="line"/>
    </contour>
  </outline>
</glyph>
<glyph name="E" format="1">
  <advance width="545"/>
  <unicode hex="0045"/>
  <outline>
    <contour>
      <point x="523" y="597"/>
      <point x="518" y="597"/>
      <point x="510" y="597" type="curve" smooth="yes"/>
      <point x="102" y="597" type="line"/>
      <point x="98" y="567" type="line"/>
      <point x="136" y="569" type="line" smooth="yes"/>
      <point x="147" y="569"/>
      <point x="153" y="561"/>
      <point x="151" y="548" type="curve" smooth="yes"/>
      <point x="81" y="49" type="line" smooth="yes"/>
      <point x="79" y="34"/>
      <point x="72" y="27"/>
      <point x="62" y="27" type="curve"/>
      <point x="22" y="30" type="line"/>
      <point x="18" y="0" type="line"/>
      <point x="387" y="0" type="line" smooth="yes"/>
      <point x="428" y="0"/>
      <point x="458" y="-1"/>
      <point x="473" y="-3" type="curve"/>
      <point x="498" y="179" type="line"/>
      <point x="469" y="179" type="line"/>
      <point x="456" y="82"/>
      <point x="402" y="28"/>
      <point x="316" y="28" type="curve" smooth="yes"/>
      <point x="180" y="28" type="line" smooth="yes"/>
      <point x="174" y="28"/>
      <point x="171" y="32"/>
      <point x="172" y="41" type="curve" smooth="yes"/>
      <point x="208" y="297" type="line"/>
      <point x="298" y="297" type="line" smooth="yes"/>
      <point x="336" y="297"/>
      <point x="363" y="255"/>
      <point x="354" y="195" type="curve"/>
      <point x="384" y="195" type="line"/>
      <point x="417" y="426" type="line"/>
      <point x="387" y="426" type="line"/>
      <point x="378" y="362"/>
      <point x="343" y="325"/>
      <point x="302" y="325" type="curve" smooth="yes"/>
      <point x="212" y="325" type="line"/>
      <point x="244" y="555" type="line" smooth="yes"/>
      <point x="245" y="564"/>
      <point x="250" y="569"/>
      <point x="256" y="569" type="curve" smooth="yes"/>
      <point x="360" y="569" type="line" smooth="yes"/>
      <point x="454" y="569"/>
      <point x="490" y="532"/>
      <point x="477" y="443" type="curve"/>
      <point x="506" y="443" type="line"/>
      <point x="528" y="599" type="line"/>
    </contour>
    <contour>
      <point x="428" y="14" type="move" name="ogonek"/>
    </contour>
    <contour>
      <point x="222" y="0" type="move" name="bottom"/>
    </contour>
    <contour>
      <point x="332" y="598" type="move" name="top"/>
    </contour>
  </outline>
</glyph>
<glyph name="H" format="1">
  <advance width="674"/>
  <unicode hex="0048"/>
  <outline>
    <contour>
      <point x="465" y="597" type="line"/>
      <point x="461" y="567" type="line"/>
      <point x="510" y="569" type="line" smooth="yes"/>
      <point x="523" y="569"/>
      <point x="525" y="559"/>
      <point x="524" y="548" type="curve" smooth="yes"/>
      <point x="492" y="322" type="line"/>
      <point x="211" y="322" type="line"/>
      <point x="243" y="548" type="line" smooth="yes"/>
      <point x="245" y="561"/>
      <point x="253" y="569"/>
      <point x="264" y="569" type="curve" smooth="yes"/>
      <point x="313" y="567" type="line"/>
      <point x="317" y="597" type="line"/>
      <point x="102" y="597" type="line"/>
      <point x="98" y="567" type="line"/>
      <point x="137" y="569" type="line" smooth="yes"/>
      <point x="150" y="570"/>
      <point x="153" y="559"/>
      <point x="151" y="548" type="curve" smooth="yes"/>
      <point x="81" y="49" type="line" smooth="yes"/>
      <point x="79" y="34"/>
      <point x="72" y="27"/>
      <point x="61" y="27" type="curve" smooth="yes"/>
      <point x="22" y="29" type="line"/>
      <point x="18" y="0" type="line"/>
      <point x="233" y="0" type="line"/>
      <point x="237" y="29" type="line"/>
      <point x="188" y="27" type="line"/>
      <point x="177" y="27"/>
      <point x="171" y="34"/>
      <point x="173" y="49" type="curve" smooth="yes"/>
      <point x="207" y="294" type="line"/>
      <point x="488" y="294" type="line"/>
      <point x="454" y="49" type="line" smooth="yes"/>
      <point x="452" y="34"/>
      <point x="446" y="27"/>
      <point x="434" y="27" type="curve" smooth="yes"/>
      <point x="385" y="29" type="line"/>
      <point x="381" y="0" type="line"/>
      <point x="596" y="0" type="line"/>
      <point x="600" y="29" type="line"/>
      <point x="560" y="27" type="line"/>
      <point x="549" y="27"/>
      <point x="545" y="34"/>
      <point x="547" y="49" type="curve" smooth="yes"/>
      <point x="617" y="548" type="line" smooth="yes"/>
      <point x="619" y="561"/>
      <point x="625" y="569"/>
      <point x="636" y="569" type="curve" smooth="yes"/>
      <point x="676" y="567" type="line"/>
      <point x="680" y="597" type="line"/>
    </contour>
    <contour>
      <point x="348" y="299" type="move" name="center"/>
    </contour>
    <contour>
      <point x="389" y="598" type="move" name="top"/>
    </contour>
  </outline>
</glyph>
<glyph name="N" format="1">
  <advance width="641"/>
  <unicode hex="004E"/>
  <outline>
    <contour>
      <point x="493" y="597" type="line"/>
      <point x="489" y="567" type="line"/>
      <point x="541" y="569" type="line" smooth="yes"/>
      <point x="551" y="569"/>
      <point x="555" y="562"/>
      <point x="553" y="549" type="curve" smooth="yes"/>
      <point x="498" y="158" type="line"/>
      <point x="249" y="597" type="line"/>
      <point x="97" y="597" type="line"/>
      <point x="93" y="567" type="line"/>
      <point x="132" y="569" type="line" smooth="yes"/>
      <point x="144" y="569"/>
      <point x="149" y="560"/>
      <point x="147" y="548" type="curve" smooth="yes"/>
      <point x="77" y="49" type="line" smooth="yes"/>
      <point x="75" y="34"/>
      <point x="68" y="27"/>
      <point x="56" y="27" type="curve" smooth="yes"/>
      <point x="17" y="29" type="line"/>
      <point x="13" y="0" type="line"/>
      <point x="171" y="0" type="line"/>
      <point x="175" y="29" type="line"/>
      <point x="126" y="27" type="line"/>
      <point x="115" y="27"/>
      <point x="111" y="34"/>
      <point x="113" y="49" type="curve" smooth="yes"/>
      <point x="179" y="521" type="line"/>
      <point x="479" y="-6" type="line"/>
      <point x="511" y="-6" type="line"/>
      <point x="589" y="548" type="line" smooth="yes"/>
      <point x="591" y="562"/>
      <point x="597" y="569"/>
      <point x="607" y="569" type="curve" smooth="yes"/>
      <point x="648" y="567" type="line"/>
      <point x="652" y="597" type="line"/>
    </contour>
    <contour>
      <point x="378" y="598" type="move" name="top"/>
    </contour>
    <contour>
      <point x="318" y="0" type="move" name="bottom"/>
    </contour>
  </outline>
</glyph>
<glyph name="backslash" format="1">
  <advance width="242"/>
  <unicode hex="005C"/>
  <outline>
    <contour>
      <point x="50" y="627" type="line"/>
      <point x="171" y="-5" type="line"/>
      <point x="215" y="7" type="line"/>
      <point x="91" y="636" type="line"/>
    </contour>
  </outline>
</glyph>
<glyph name="o" format="1">
  <advance width="451"/>
  <unicode hex="006F"/>
  <outline>
    <contour>
      <point x="123" y="430"/>
      <point x="28" y="297"/>
      <point x="28" y="156" type="curve" smooth="yes"/>
      <point x="28" y="63"/>
      <point x="69" y="-10"/>
      <point x="179" y="-10" type="curve" smooth="yes"/>
      <point x="328" y="-10"/>
      <point x="423" y="123"/>
      <point x="423" y="264" type="curve" smooth="yes"/>
      <point x="423" y="357"/>
      <point x="382" y="430"/>
      <point x="272" y="430" type="curve" smooth="yes"/>
    </contour>
    <contour>
      <point x="307" y="398"/>
      <point x="335" y="355"/>
      <point x="335" y="272" type="curve" smooth="yes"/>
      <point x="335" y="233"/>
      <point x="329" y="191"/>
      <point x="317" y="152" type="curve" smooth="yes"/>
      <point x="295" y="81"/>
      <point x="251" y="22"/>
      <point x="193" y="22" type="curve" smooth="yes"/>
      <point x="144" y="22"/>
      <point x="116" y="65"/>
      <point x="116" y="148" type="curve" smooth="yes"/>
      <point x="116" y="192"/>
      <point x="124" y="241"/>
      <point x="140" y="285" type="curve" smooth="yes"/>
      <point x="162" y="345"/>
      <point x="203" y="398"/>
      <point x="258" y="398" type="curve" smooth="yes"/>
    </contour>
    <contour>
      <point x="274" y="420" type="move" name="top"/>
    </contour>
  </outline>
</glyph>
<glyph name="s" format="1">
  <advance width="352"/>
  <unicode hex="0073"/>
  <outline>
    <contour>
      <point x="39" y="175"/>
      <point x="236" y="177"/>
      <point x="238" y="91" type="curve"/>
      <point x="318" y="123" type="line"/>
      <point x="316" y="238"/>
      <point x="118" y="238"/>
      <point x="116" y="329" type="curve"/>
      <point x="37" y="297" type="line"/>
    </contour>
    <contour>
      <point x="14" y="137"/>
      <point x="-7" y="115"/>
      <point x="-7" y="81" type="curve" smooth="yes"/>
      <point x="-7" y="31"/>
      <point x="48" y="-10"/>
      <point x="138" y="-10" type="curve" smooth="yes"/>
      <point x="235" y="-10"/>
      <point x="319" y="36"/>
      <point x="318" y="123" type="curve"/>
      <point x="238" y="91" type="line"/>
      <point x="238" y="39"/>
      <point x="190" y="17"/>
      <point x="141" y="17" type="curve" smooth="yes"/>
      <point x="91" y="17"/>
      <point x="69" y="34"/>
      <point x="69" y="58" type="curve" smooth="yes"/>
      <point x="69" y="77"/>
      <point x="84" y="91"/>
      <point x="84" y="111" type="curve" smooth="yes"/>
      <point x="84" y="125"/>
      <point x="66" y="137"/>
      <point x="45" y="137" type="curve" smooth="yes"/>
    </contour>
    <contour>
      <point x="117" y="430"/>
      <point x="36" y="374"/>
      <point x="37" y="297" type="curve"/>
      <point x="116" y="329" type="line"/>
      <point x="116" y="370"/>
      <point x="152" y="403"/>
      <point x="207" y="403" type="curve" smooth="yes"/>
      <point x="246" y="403"/>
      <point x="269" y="387"/>
      <point x="269" y="362" type="curve" smooth="yes"/>
      <point x="269" y="343"/>
      <point x="256" y="333"/>
      <point x="256" y="313" type="curve" smooth="yes"/>
      <point x="256" y="299"/>
      <point x="272" y="287"/>
      <point x="292" y="287" type="curve" smooth="yes"/>
      <point x="324" y="287"/>
      <point x="345" y="309"/>
      <point x="345" y="341" type="curve" smooth="yes"/>
      <point x="345" y="389"/>
      <point x="289" y="430"/>
      <point x="208" y="430" type="curve" smooth="yes"/>
    </contour>
    <contour>
      <point x="207" y="420" type="move" name="top"/>
    </contour>
    <contour>
      <point x="134" y="0" type="move" name="bottom"/>
    </contour>
  </outline>
</glyph>
<glyph name="cent" format="1">
  <advance width="382"/>
  <unicode hex="00A2"/>
  <outline>
    <contour>
      <point x="135" y="467"/>
      <point x="57" y="385"/>
      <point x="57" y="258" type="curve" smooth="yes"/>
      <point x="57" y="166"/>
      <point x="101" y="113"/>
      <point x="207" y="116" type="curve" smooth="yes"/>
      <point x="259" y="116"/>
      <point x="314" y="155"/>
      <point x="336" y="209" type="curve"/>
      <point x="317" y="223" type="line"/>
      <point x="295" y="174"/>
      <point x="247" y="137"/>
      <point x="201" y="137" type="curve" smooth="yes"/>
      <point x="155" y="137"/>
      <point x="131" y="174"/>
      <point x="131" y="244" type="curve" smooth="yes"/>
      <point x="131" y="400"/>
      <point x="179" y="445"/>
      <point x="235" y="445" type="curve" smooth="yes"/>
      <point x="264" y="445"/>
      <point x="290" y="433"/>
      <point x="290" y="409" type="curve" smooth="yes"/>
      <point x="290" y="384"/>
      <point x="275" y="386"/>
      <point x="275" y="365" type="curve" smooth="yes"/>
      <point x="275" y="352"/>
      <point x="285" y="345"/>
      <point x="306" y="345" type="curve" smooth="yes"/>
      <point x="327" y="345"/>
      <point x="348" y="364"/>
      <point x="348" y="392" type="curve" smooth="yes"/>
      <point x="348" y="430"/>
      <point x="306" y="467"/>
      <point x="244" y="467" type="curve" smooth="yes"/>
    </contour>
    <contour>
      <point x="186" y="124" type="line"/>
      <point x="156" y="-95" type="line"/>
      <point x="194" y="-95" type="line"/>
      <point x="224" y="126" type="line"/>
    </contour>
    <contour>
      <point x="260" y="647" type="line"/>
      <point x="234" y="458" type="line"/>
      <point x="270" y="455" type="line"/>
      <point x="297" y="647" type="line"/>
    </contour>
  </outline>
</glyph>
<glyph name="ordfeminine" format="1">
  <advance width="255"/>
  <unicode hex="00AA"/>
  <outline>
    <contour>
      <point x="28" y="361"/>
      <point x="52" y="342"/>
      <point x="101" y="342" type="curve" smooth="yes"/>
      <point x="139" y="342"/>
      <point x="168" y="357"/>
      <point x="187" y="387" type="curve"/>
      <point x="180" y="350" type="line"/>
      <point x="274" y="350" type="line"/>
      <point x="278" y="374" type="line"/>
      <point x="247" y="373" type="line" smooth="yes"/>
      <point x="244" y="373"/>
      <point x="243" y="375"/>
      <point x="244" y="380" type="curve" smooth="yes"/>
      <point x="264" y="519" type="line" smooth="yes"/>
      <point x="265" y="525"/>
      <point x="266" y="536"/>
      <point x="266" y="544" type="curve" smooth="yes"/>
      <point x="266" y="593"/>
      <point x="236" y="615"/>
      <point x="168" y="615" type="curve" smooth="yes"/>
      <point x="96" y="615"/>
      <point x="60" y="592"/>
      <point x="60" y="555" type="curve" smooth="yes"/>
      <point x="60" y="538"/>
      <point x="70" y="529"/>
      <point x="88" y="529" type="curve" smooth="yes"/>
      <point x="117" y="529"/>
      <point x="123" y="546"/>
      <point x="123" y="562" type="curve" smooth="yes"/>
      <point x="123" y="578"/>
      <point x="133" y="592"/>
      <point x="165" y="592" type="curve" smooth="yes"/>
      <point x="192" y="592"/>
      <point x="207" y="580"/>
      <point x="207" y="556" type="curve" smooth="yes"/>
      <point x="207" y="549"/>
      <point x="205" y="535"/>
      <point x="204" y="528" type="curve" smooth="yes"/>
      <point x="201" y="505" type="line"/>
      <point x="78" y="505"/>
      <point x="28" y="470"/>
      <point x="28" y="400" type="curve" smooth="yes"/>
    </contour>
    <contour>
      <point x="93" y="457"/>
      <point x="123" y="482"/>
      <point x="198" y="482" type="curve"/>
      <point x="194" y="457" type="line" smooth="yes"/>
      <point x="187" y="410"/>
      <point x="154" y="373"/>
      <point x="121" y="373" type="curve" smooth="yes"/>
      <point x="104" y="373"/>
      <point x="93" y="384"/>
      <point x="93" y="407" type="curve" smooth="yes"/>
    </contour>
  </outline>
</glyph>
<glyph name="uni00B2" format="1">
  <advance width="262"/>
  <unicode hex="00B2"/>
  <outline>
    <contour>
      <point x="252" y="460"/>
      <point x="235" y="454"/>
      <point x="199" y="454" type="curve" smooth="yes"/>
      <point x="83" y="454" type="line"/>
      <point x="81" y="441" type="line"/>
      <point x="165" y="488" type="line" smooth="yes"/>
      <point x="281" y="553"/>
      <point x="294" y="576"/>
      <point x="294" y="616" type="curve" smooth="yes"/>
      <point x="294" y="658"/>
      <point x="250" y="678"/>
      <point x="193" y="678" type="curve" smooth="yes"/>
      <point x="125" y="678"/>
      <point x="82" y="648"/>
      <point x="82" y="614" type="curve" smooth="yes"/>
      <point x="82" y="597"/>
      <point x="91" y="583"/>
      <point x="115" y="583" type="curve" smooth="yes"/>
      <point x="134" y="583"/>
      <point x="151" y="592"/>
      <point x="154" y="609" type="curve" smooth="yes"/>
      <point x="155" y="618"/>
      <point x="153" y="626"/>
      <point x="153" y="634" type="curve" smooth="yes"/>
      <point x="153" y="644"/>
      <point x="160" y="660"/>
      <point x="188" y="660" type="curve" smooth="yes"/>
      <point x="206" y="660"/>
      <point x="220" y="652"/>
      <point x="220" y="626" type="curve" smooth="yes"/>
      <point x="220" y="585"/>
      <point x="213" y="558"/>
      <point x="124" y="493" type="curve" smooth="yes"/>
      <point x="60" y="447" type="line"/>
      <point x="56" y="403" type="line"/>
      <point x="227" y="403" type="line" smooth="yes"/>
      <point x="237" y="403"/>
      <point x="254" y="402"/>
      <point x="258" y="401" type="curve"/>
      <point x="259" y="413"/>
      <point x="268" y="452"/>
      <point x="279" y="480" type="curve"/>
      <point x="259" y="480" type="line"/>
    </contour>
  </outline>
</glyph>
<glyph name="AE" format="1">
  <advance width="818"/>
  <unicode hex="00C6"/>
  <outline>
    <contour>
      <point x="803" y="598"/>
      <point x="791" y="597"/>
      <point x="777" y="597" type="curve" smooth="yes"/>
      <point x="327" y="597" type="line"/>
      <point x="322" y="565" type="line"/>
      <point x="373" y="567" type="line" smooth="yes"/>
      <point x="383" y="567"/>
      <point x="390" y="552"/>
      <point x="383" y="543" type="curve" smooth="yes"/>
      <point x="49" y="86" type="line" smooth="yes"/>
      <point x="21" y="48"/>
      <point x="2" y="27"/>
      <point x="-12" y="27" type="curve"/>
      <point x="-47" y="30" type="line"/>
      <point x="-51" y="0" type="line"/>
      <point x="121" y="0" type="line"/>
      <point x="125" y="30" type="line"/>
      <point x="71" y="27" type="line" smooth="yes"/>
      <point x="51" y="27"/>
      <point x="60" y="57"/>
      <point x="77" y="80" type="curve" smooth="yes"/>
      <point x="168" y="208" type="line"/>
      <point x="403" y="208" type="line"/>
      <point x="409" y="47" type="line"/>
      <point x="407" y="37"/>
      <point x="399" y="26"/>
      <point x="386" y="27" type="curve" smooth="yes"/>
      <point x="330" y="30" type="line"/>
      <point x="326" y="0" type="line"/>
      <point x="660" y="0" type="line" smooth="yes"/>
      <point x="674" y="0"/>
      <point x="710" y="0"/>
      <point x="746" y="-3" type="curve"/>
      <point x="770" y="171" type="line"/>
      <point x="741" y="171" type="line"/>
      <point x="728" y="75"/>
      <point x="676" y="27"/>
      <point x="587" y="27" type="curve" smooth="yes"/>
      <point x="523" y="27" type="line" smooth="yes"/>
      <point x="513" y="27"/>
      <point x="508" y="35"/>
      <point x="506" y="46" type="curve"/>
      <point x="496" y="297" type="line"/>
      <point x="571" y="297" type="line" smooth="yes"/>
      <point x="611" y="297"/>
      <point x="636" y="255"/>
      <point x="627" y="195" type="curve"/>
      <point x="656" y="195" type="line"/>
      <point x="689" y="426" type="line"/>
      <point x="660" y="426" type="line"/>
      <point x="651" y="365"/>
      <point x="615" y="324"/>
      <point x="575" y="324" type="curve" smooth="yes"/>
      <point x="496" y="324" type="line"/>
      <point x="487" y="569" type="line"/>
      <point x="643" y="569" type="line" smooth="yes"/>
      <point x="735" y="569"/>
      <point x="774" y="531"/>
      <point x="761" y="443" type="curve"/>
      <point x="789" y="443" type="line"/>
      <point x="811" y="599" type="line"/>
    </contour>
    <contour>
      <point x="401" y="236" type="line"/>
      <point x="188" y="236" type="line"/>
      <point x="390" y="511" type="line"/>
    </contour>
    <contour>
      <point x="494" y="598" type="move" name="top"/>
    </contour>
  </outline>
</glyph>
<glyph name="multiply" format="1">
  <advance width="445"/>
  <unicode hex="00D7"/>
  <outline>
    <contour>
      <point x="234" y="298" type="line"/>
      <point x="124" y="434" type="line"/>
      <point x="91" y="404" type="line"/>
      <point x="202" y="269" type="line"/>
      <point x="51" y="132" type="line"/>
      <point x="77" y="103" type="line"/>
      <point x="227" y="239" type="line"/>
      <point x="340" y="102" type="line"/>
      <point x="372" y="131" type="line"/>
      <point x="260" y="269" type="line"/>
      <point x="410" y="405" type="line"/>
      <point x="385" y="435" type="line"/>
    </contour>
  </outline>
</glyph>
<glyph name="Oslash" format="1">
  <advance width="644"/>
  <unicode hex="00D8"/>
  <outline>
    <contour>
      <point x="619" y="666" type="line"/>
      <point x="584" y="687" type="line"/>
      <point x="46" y="-74" type="line"/>
      <point x="81" y="-92" type="line"/>
    </contour>
    <component base="O"/>
    <contour>
      <point x="377" y="598" type="move" name="top"/>
    </contour>
  </outline>
</glyph>
<glyph name="thorn" format="1">
  <advance width="460"/>
  <unicode hex="00FE"/>
  <outline>
    <contour>
      <point x="152" y="730"/>
      <point x="106" y="722"/>
      <point x="58" y="698" type="curve"/>
      <point x="64" y="673" type="line"/>
      <point x="73" y="675"/>
      <point x="81" y="675"/>
      <point x="88" y="675" type="curve" smooth="yes"/>
      <point x="108" y="675"/>
      <point x="121" y="667"/>
      <point x="121" y="651" type="curve" smooth="yes"/>
      <point x="121" y="529"/>
      <point x="35" y="-13"/>
      <point x="9" y="-195" type="curve" smooth="yes"/>
      <point x="7" y="-208"/>
      <point x="3" y="-214"/>
      <point x="-5" y="-215" type="curve"/>
      <point x="-36" y="-213" type="line"/>
      <point x="-40" y="-239" type="line"/>
      <point x="154" y="-239" type="line"/>
      <point x="158" y="-213" type="line"/>
      <point x="95" y="-215" type="line" smooth="yes"/>
      <point x="89" y="-215"/>
      <point x="86" y="-211"/>
      <point x="86" y="-203" type="curve" smooth="yes"/>
      <point x="87" y="-164"/>
      <point x="107" y="-18"/>
      <point x="122" y="93" type="curve"/>
      <point x="139" y="213" type="line"/>
      <point x="151" y="297"/>
      <point x="163" y="380"/>
      <point x="175" y="464" type="curve" smooth="yes"/>
      <point x="184" y="524"/>
      <point x="214" y="692"/>
      <point x="214" y="708" type="curve" smooth="yes"/>
      <point x="214" y="727"/>
      <point x="200" y="730"/>
      <point x="176" y="730" type="curve" smooth="yes"/>
    </contour>
    <contour>
      <point x="327" y="375"/>
      <point x="349" y="340"/>
      <point x="349" y="276" type="curve" smooth="yes"/>
      <point x="349" y="232"/>
      <point x="338" y="160"/>
      <point x="311" y="103" type="curve" smooth="yes"/>
      <point x="288" y="56"/>
      <point x="253" y="20"/>
      <point x="202" y="20" type="curve" smooth="yes"/>
      <point x="176" y="20"/>
      <point x="125" y="30"/>
      <point x="125" y="94" type="curve" smooth="yes"/>
      <point x="125" y="192"/>
      <point x="243" y="375"/>
      <point x="300" y="375" type="curve" smooth="yes"/>
    </contour>
    <contour>
      <point x="274" y="430"/>
      <point x="199" y="372"/>
      <point x="135" y="216" type="curve"/>
      <point x="107" y="41" type="line"/>
      <point x="122" y="12"/>
      <point x="159" y="-10"/>
      <point x="206" y="-10" type="curve" smooth="yes"/>
      <point x="338" y="-10"/>
      <point x="438" y="161"/>
      <point x="438" y="300" type="curve" smooth="yes"/>
      <point x="438" y="378"/>
      <point x="399" y="430"/>
      <point x="336" y="430" type="curve" smooth="yes"/>
    </contour>
  </outline>
</glyph>
<glyph name="uni0326" format="1">
  <advance width="260"/>
  <unicode hex="0326"/>
  <outline>
    <contour>
      <point x="60" y="-34"/>
      <point x="41" y="-59"/>
      <point x="41" y="-81" type="curve" smooth="yes"/>
      <point x="41" y="-97"/>
      <point x="51" y="-111"/>
      <point x="67" y="-111" type="curve" smooth="yes"/>
      <point x="81" y="-111"/>
      <point x="94" y="-117"/>
      <point x="91" y="-140" type="curve" smooth="yes"/>
      <point x="89" y="-158"/>
      <point x="62" y="-185"/>
      <point x="34" y="-200" type="curve"/>
      <point x="48" y="-213" type="line"/>
      <point x="95" y="-192"/>
      <point x="147" y="-144"/>
      <point x="147" y="-87" type="curve" smooth="yes"/>
      <point x="147" y="-59"/>
      <point x="129" y="-34"/>
      <point x="94" y="-34" type="curve" smooth="yes"/>
    </contour>
    <contour>
      <point x="96" y="0" type="move" name="_bottom"/>
    </contour>
  </outline>
</glyph>
<glyph name="approxequal" format="1">
  <advance width="444"/>
  <unicode hex="2248"/>
  <outline>
    <contour>
      <point x="113" y="380"/>
      <point x="75" y="356"/>
      <point x="40" y="307" type="curve"/>
      <point x="64" y="276" type="line"/>
      <point x="101" y="323"/>
      <point x="120" y="332"/>
      <point x="150" y="332" type="curve" smooth="yes"/>
      <point x="203" y="332"/>
      <point x="262" y="267"/>
      <point x="317" y="267" type="curve" smooth="yes"/>
      <point x="361" y="267"/>
      <point x="404" y="297"/>
      <point x="438" y="345" type="curve"/>
      <point x="414" y="376" type="line"/>
      <point x="377" y="329"/>
      <point x="354" y="315"/>
      <point x="323" y="315" type="curve" smooth="yes"/>
      <point x="272" y="315"/>
      <point x="214" y="380"/>
      <point x="156" y="380" type="curve" smooth="yes"/>
    </contour>
    <contour>
      <point x="85" y="180"/>
      <point x="47" y="156"/>
      <point x="12" y="107" type="curve"/>
      <point x="36" y="76" type="line"/>
      <point x="73" y="123"/>
      <point x="92" y="132"/>
      <point x="122" y="132" type="curve" smooth="yes"/>
      <point x="175" y="132"/>
      <point x="233" y="67"/>
      <point x="288" y="67" type="curve" smooth="yes"/>
      <point x="332" y="67"/>
      <point x="376" y="97"/>
      <point x="410" y="145" type="curve"/>
      <point x="386" y="176" type="line"/>
      <point x="349" y="129"/>
      <point x="326" y="115"/>
      <point x="295" y="115" type="curve" smooth="yes"/>
      <point x="244" y="115"/>
      <point x="186" y="180"/>
      <point x="128" y="180" type="curve" smooth="yes"/>
    </contour>
  </outline>
</glyph>
<glyph name="lessequal" format="1">
  <advance width="460"/>
  <unicode hex="2264"/>
  <outline>
    <contour>
      <point x="65" y="286" type="line"/>
      <point x="393" y="120" type="line"/>
      <point x="401" y="176" type="line"/>
      <point x="185" y="282" type="line"/>
      <point x="131" y="298" type="line"/>
      <point x="190" y="315" type="line"/>
      <point x="436" y="421" type="line"/>
      <point x="444" y="477" type="line"/>
      <point x="68" y="311" type="line"/>
    </contour>
    <contour>
      <point x="32" y="51" type="line"/>
      <point x="24" y="0" type="line"/>
      <point x="376" y="0" type="line"/>
      <point x="384" y="51" type="line"/>
    </contour>
  </outline>
</glyph>
<glyph name="f.ss01" format="1">
  <advance width="287"/>
  <outline>
    <contour>
      <point x="193" y="730"/>
      <point x="141" y="641"/>
      <point x="128" y="523" type="curve" smooth="yes"/>
      <point x="80" y="72" type="line" smooth="yes"/>
      <point x="58" y="-123"/>
      <point x="34" y="-218"/>
      <point x="-29" y="-218" type="curve" smooth="yes"/>
      <point x="-48" y="-218"/>
      <point x="-60" y="-209"/>
      <point x="-60" y="-193" type="curve" smooth="yes"/>
      <point x="-60" y="-182"/>
      <point x="-54" y="-174"/>
      <point x="-54" y="-162" type="curve" smooth="yes"/>
      <point x="-54" y="-141"/>
      <point x="-73" y="-134"/>
      <point x="-91" y="-134" type="curve" smooth="yes"/>
      <point x="-123" y="-134"/>
      <point x="-136" y="-157"/>
      <point x="-136" y="-178" type="curve" smooth="yes"/>
      <point x="-136" y="-219"/>
      <point x="-89" y="-245"/>
      <point x="-37" y="-245" type="curve" smooth="yes"/>
      <point x="90" y="-245"/>
      <point x="148" y="-94"/>
      <point x="170" y="102" type="curve" smooth="yes"/>
      <point x="216" y="537" type="line" smooth="yes"/>
      <point x="221" y="590"/>
      <point x="227" y="627"/>
      <point x="235" y="652" type="curve" smooth="yes"/>
      <point x="248" y="691"/>
      <point x="263" y="703"/>
      <point x="280" y="703" type="curve" smooth="yes"/>
      <point x="304" y="703"/>
      <point x="310" y="687"/>
      <point x="310" y="673" type="curve" smooth="yes"/>
      <point x="310" y="657"/>
      <point x="301" y="650"/>
      <point x="301" y="637" type="curve" smooth="yes"/>
      <point x="301" y="614"/>
      <point x="319" y="608"/>
      <point x="337" y="608" type="curve" smooth="yes"/>
      <point x="372" y="608"/>
      <point x="384" y="628"/>
      <point x="384" y="649" type="curve" smooth="yes"/>
      <point x="384" y="694"/>
      <point x="344" y="730"/>
      <point x="285" y="730" type="curve" smooth="yes"/>
    </contour>
    <contour>
      <point x="56" y="420" type="line"/>
      <point x="29" y="389" type="line"/>
      <point x="131" y="389" type="line"/>
      <point x="139" y="420" type="line"/>
    </contour>
    <contour>
      <point x="203" y="420" type="line"/>
      <point x="197" y="389" type="line"/>
      <point x="281" y="389" type="line"/>
      <point x="310" y="405" type="line"/>
      <point x="310" y="420" type="line"/>
    </contour>
  </outline>
</glyph>
<glyph name="uniFB01.ss01" format="1">
  <advance width="546"/>
  <outline>
    <contour>
      <point x="229" y="701"/>
      <point x="140" y="585"/>
      <point x="123" y="440" type="curve" smooth="yes"/>
      <point x="97" y="214"/>
      <point x="68" y="-13"/>
      <point x="36" y="-239" type="curve"/>
      <point x="118" y="-209" type="line"/>
      <point x="208" y="454" type="line" smooth="yes"/>
      <point x="232" y="629"/>
      <point x="293" y="673"/>
      <point x="358" y="673" type="curve" smooth="yes"/>
      <point x="399" y="673"/>
      <point x="409" y="656"/>
      <point x="409" y="626" type="curve" smooth="yes"/>
      <point x="409" y="600"/>
      <point x="429" y="585"/>
      <point x="457" y="585" type="curve" smooth="yes"/>
      <point x="493" y="585"/>
      <point x="518" y="605"/>
      <point x="518" y="639" type="curve" smooth="yes"/>
      <point x="518" y="687"/>
      <point x="462" y="701"/>
      <point x="383" y="701" type="curve" smooth="yes"/>
    </contour>
    <contour>
      <point x="55" y="420" type="line"/>
      <point x="28" y="389" type="line"/>
      <point x="130" y="389" type="line"/>
      <point x="138" y="420" type="line"/>
    </contour>
    <contour>
      <point x="417" y="426"/>
      <point x="376" y="416"/>
      <point x="337" y="400" type="curve"/>
      <point x="342" y="371" type="line"/>
      <point x="346" y="372"/>
      <point x="353" y="373"/>
      <point x="358" y="373" type="curve" smooth="yes"/>
      <point x="372" y="373"/>
      <point x="389" y="367"/>
      <point x="389" y="347" type="curve" smooth="yes"/>
      <point x="389" y="325"/>
      <point x="385" y="283"/>
      <point x="376" y="223" type="curve" smooth="yes"/>
      <point x="365" y="146"/>
      <point x="350" y="68"/>
      <point x="350" y="36" type="curve" smooth="yes"/>
      <point x="350" y="5"/>
      <point x="365" y="-10"/>
      <point x="388" y="-10" type="curve" smooth="yes"/>
      <point x="417" y="-10"/>
      <point x="457" y="16"/>
      <point x="499" y="60" type="curve"/>
      <point x="487" y="80" type="line"/>
      <point x="470" y="69"/>
      <point x="456" y="67"/>
      <point x="451" y="67" type="curve" smooth="yes"/>
      <point x="435" y="67"/>
      <point x="434" y="83"/>
      <point x="434" y="94" type="curve" smooth="yes"/>
      <point x="434" y="118"/>
      <point x="440" y="173"/>
      <point x="450" y="230" type="curve" smooth="yes"/>
      <point x="464" y="310"/>
      <point x="482" y="392"/>
      <point x="482" y="404" type="curve" smooth="yes"/>
      <point x="482" y="423"/>
      <point x="468" y="426"/>
      <point x="451" y="426" type="curve" smooth="yes"/>
    </contour>
    <contour>
      <point x="202" y="420" type="line"/>
      <point x="196" y="389" type="line"/>
      <point x="280" y="389" type="line"/>
      <point x="309" y="405" type="line"/>
      <point x="309" y="420" type="line"/>
    </contour>
  </outline>
</glyph>
